<svg width="1234" height="748"  preserveAspectRatio="xMidYMid slice" xmlns="http://www.w3.org/2000/svg" xmlns:xlink="http://www.w3.org/1999/xlink" overflow="hidden"><defs><clipPath id="clip0"><rect x="1199" y="903" width="1234" height="748"/></clipPath></defs><g clip-path="url(#clip0)" transform="translate(-1199 -903)"><path d="M1218 946 1349.09 1004.29 1397.65 1388 2159.94 1388 2393 994.572 2393 994.572" stroke="#FFFFFF" stroke-width="91.6667" stroke-miterlimit="8" fill="none" fill-rule="evenodd"/><path d="M1452.5 1540.5C1452.5 1499.63 1484.96 1466.5 1525 1466.5 1565.04 1466.5 1597.5 1499.63 1597.5 1540.5 1597.5 1581.37 1565.04 1614.5 1525 1614.5 1484.96 1614.5 1452.5 1581.37 1452.5 1540.5Z" stroke="#FFFFFF" stroke-width="73.3333" stroke-miterlimit="8" fill="none" fill-rule="evenodd"/><path d="M1937.5 1540.5C1937.5 1499.63 1969.96 1466.5 2010 1466.5 2050.04 1466.5 2082.5 1499.63 2082.5 1540.5 2082.5 1581.37 2050.04 1614.5 2010 1614.5 1969.96 1614.5 1937.5 1581.37 1937.5 1540.5Z" stroke="#FFFFFF" stroke-width="73.3333" stroke-miterlimit="8" fill="none" fill-rule="evenodd"/></g></svg>