<svg width="259" height="100" viewBox="0 0 259 100" fill="none" xmlns="http://www.w3.org/2000/svg">
<path d="M62.8784 81H54.2358V47.0156C54.2358 44.2324 54.4067 40.8267 54.7485 36.7983H54.6021C54.0649 39.0933 53.5889 40.7412 53.1738 41.7422L37.5 81H31.4941L15.7837 42.0352C15.3442 40.8877 14.8804 39.1421 14.3921 36.7983H14.2456C14.4409 38.8979 14.5386 42.3281 14.5386 47.0889V81H6.48193V28.4854H18.75L32.5562 63.4585C33.606 66.144 34.2896 68.146 34.6069 69.4644H34.79C35.6934 66.7056 36.4258 64.6548 36.9873 63.312L51.0498 28.4854H62.8784V81ZM75.8423 81V28.4854H91.0034C110.364 28.4854 120.044 37.0181 120.044 54.0835C120.044 62.189 117.358 68.7075 111.987 73.6392C106.616 78.5464 99.4141 81 90.3809 81H75.8423ZM84.5215 35.8828V73.6392H91.4795C97.6074 73.6392 102.368 71.9546 105.762 68.5854C109.18 65.2163 110.889 60.4556 110.889 54.3032C110.889 42.0229 104.529 35.8828 91.8091 35.8828H84.5215ZM159.155 81H129.675V28.4854H157.983V35.8828H138.391V50.751H156.445V58.1118H138.391V73.6392H159.155V81Z" fill="white"/>
<path d="M189.091 36H187.017V27.8438C187.017 27.1758 187.058 26.3584 187.14 25.3916H187.104C186.976 25.9424 186.861 26.3379 186.762 26.5781L183 36H181.559L177.788 26.6484C177.683 26.373 177.571 25.9541 177.454 25.3916H177.419C177.466 25.8955 177.489 26.7188 177.489 27.8613V36H175.556V23.3965H178.5L181.813 31.79C182.065 32.4346 182.229 32.915 182.306 33.2314H182.35C182.566 32.5693 182.742 32.0771 182.877 31.7549L186.252 23.3965H189.091V36ZM202.556 36H200.262L199.128 32.792H194.171L193.081 36H190.796L195.516 23.3965H197.871L202.556 36ZM198.574 31.0869L196.825 26.0596C196.772 25.8955 196.717 25.6318 196.658 25.2686H196.623C196.57 25.6025 196.512 25.8662 196.447 26.0596L194.716 31.0869H198.574ZM213.709 30.9023C213.709 34.4414 212.033 36.2109 208.682 36.2109C205.471 36.2109 203.865 34.5088 203.865 31.1045V23.3965H205.957V30.6738C205.957 33.1465 206.918 34.3828 208.84 34.3828C210.691 34.3828 211.617 33.1904 211.617 30.8057V23.3965H213.709V30.9023ZM226.409 36H223.966L221.953 32.625C221.771 32.3145 221.593 32.0508 221.417 31.834C221.247 31.6113 221.071 31.4297 220.89 31.2891C220.714 31.1484 220.521 31.0459 220.31 30.9814C220.099 30.917 219.861 30.8848 219.598 30.8848H218.754V36H216.671V23.3965H220.819C221.411 23.3965 221.956 23.4668 222.454 23.6074C222.952 23.748 223.386 23.9619 223.755 24.249C224.124 24.5303 224.411 24.8848 224.616 25.3125C224.827 25.7344 224.933 26.2295 224.933 26.7979C224.933 27.2432 224.865 27.6533 224.73 28.0283C224.602 28.3975 224.414 28.7285 224.168 29.0215C223.928 29.3086 223.635 29.5547 223.289 29.7598C222.949 29.9648 222.565 30.123 222.138 30.2344V30.2695C222.366 30.3984 222.565 30.542 222.735 30.7002C222.905 30.8525 223.066 31.0107 223.219 31.1748C223.371 31.3389 223.521 31.5264 223.667 31.7373C223.819 31.9424 223.986 32.1826 224.168 32.458L226.409 36ZM218.754 25.0928V29.1885H220.494C220.816 29.1885 221.112 29.1387 221.382 29.0391C221.657 28.9395 221.895 28.7959 222.094 28.6084C222.293 28.4209 222.448 28.1924 222.56 27.9229C222.671 27.6533 222.727 27.3516 222.727 27.0176C222.727 26.4141 222.536 25.9424 222.155 25.6025C221.774 25.2627 221.227 25.0928 220.512 25.0928H218.754ZM232.904 36.2109C231.088 36.2109 229.632 35.6221 228.536 34.4443C227.446 33.2666 226.901 31.7344 226.901 29.8477C226.901 27.8203 227.458 26.2031 228.571 24.9961C229.685 23.7891 231.196 23.1855 233.106 23.1855C234.876 23.1855 236.3 23.7715 237.378 24.9434C238.462 26.1152 239.004 27.6475 239.004 29.54C239.004 31.5967 238.45 33.2227 237.343 34.418C236.235 35.6133 234.756 36.2109 232.904 36.2109ZM233.001 25.0225C231.847 25.0225 230.906 25.4531 230.18 26.3145C229.459 27.1758 229.099 28.3096 229.099 29.7158C229.099 31.1162 229.45 32.2441 230.153 33.0996C230.856 33.9551 231.776 34.3828 232.913 34.3828C234.12 34.3828 235.072 33.9756 235.77 33.1611C236.467 32.3467 236.815 31.207 236.815 29.7422C236.815 28.2363 236.476 27.0732 235.796 26.2529C235.122 25.4326 234.19 25.0225 233.001 25.0225ZM175.556 60V47.3965H179.194C183.841 47.3965 186.164 49.4443 186.164 53.54C186.164 55.4854 185.52 57.0498 184.23 58.2334C182.941 59.4111 181.213 60 179.045 60H175.556ZM177.639 49.1719V58.2334H179.309C180.779 58.2334 181.922 57.8291 182.736 57.0205C183.557 56.2119 183.967 55.0693 183.967 53.5928C183.967 50.6455 182.44 49.1719 179.388 49.1719H177.639ZM198.548 60H196.254L195.12 56.792H190.163L189.073 60H186.788L191.508 47.3965H193.863L198.548 60ZM194.566 55.0869L192.817 50.0596C192.765 49.8955 192.709 49.6318 192.65 49.2686H192.615C192.562 49.6025 192.504 49.8662 192.439 50.0596L190.708 55.0869H194.566ZM207.091 49.1719H203.47V60H201.378V49.1719H197.766V47.3965H207.091V49.1719ZM217.972 60H215.678L214.544 56.792H209.587L208.497 60H206.212L210.932 47.3965H213.287L217.972 60ZM213.99 55.0869L212.241 50.0596C212.188 49.8955 212.133 49.6318 212.074 49.2686H212.039C211.986 49.6025 211.928 49.8662 211.863 50.0596L210.132 55.0869H213.99ZM182.631 84H175.556V71.3965H182.35V73.1719H177.647V76.7402H181.98V78.5068H177.647V82.2334H182.631V84ZM194.505 84H192L189.416 79.377C189.34 79.2363 189.255 79.0371 189.161 78.7793H189.126C189.073 78.9082 188.985 79.1074 188.862 79.377L186.199 84H183.677L187.808 77.6631L184.011 71.3965H186.568L188.845 75.6504C188.991 75.9316 189.123 76.2129 189.24 76.4941H189.267C189.437 76.125 189.583 75.832 189.706 75.6152L192.07 71.3965H194.426L190.541 77.6455L194.505 84ZM198.311 79.4297V84H196.228V71.3965H200.051C201.498 71.3965 202.62 71.7334 203.417 72.4072C204.214 73.0811 204.612 74.0303 204.612 75.2549C204.612 76.4795 204.196 77.4814 203.364 78.2607C202.532 79.04 201.407 79.4297 199.989 79.4297H198.311ZM198.311 73.1191V77.7246H199.664C200.561 77.7246 201.243 77.5166 201.712 77.1006C202.181 76.6846 202.415 76.0986 202.415 75.3428C202.415 73.8604 201.554 73.1191 199.831 73.1191H198.311ZM213.735 84H206.757V71.3965H208.849V82.2334H213.735V84ZM220.213 84.2109C218.396 84.2109 216.94 83.6221 215.845 82.4443C214.755 81.2666 214.21 79.7344 214.21 77.8477C214.21 75.8203 214.767 74.2031 215.88 72.9961C216.993 71.7891 218.505 71.1855 220.415 71.1855C222.185 71.1855 223.608 71.7715 224.687 72.9434C225.771 74.1152 226.312 75.6475 226.312 77.54C226.312 79.5967 225.759 81.2227 224.651 82.418C223.544 83.6133 222.064 84.2109 220.213 84.2109ZM220.31 73.0225C219.155 73.0225 218.215 73.4531 217.488 74.3145C216.768 75.1758 216.407 76.3096 216.407 77.7158C216.407 79.1162 216.759 80.2441 217.462 81.0996C218.165 81.9551 219.085 82.3828 220.222 82.3828C221.429 82.3828 222.381 81.9756 223.078 81.1611C223.775 80.3467 224.124 79.207 224.124 77.7422C224.124 76.2363 223.784 75.0732 223.104 74.2529C222.431 73.4326 221.499 73.0225 220.31 73.0225ZM238.362 84H235.919L233.906 80.625C233.725 80.3145 233.546 80.0508 233.37 79.834C233.2 79.6113 233.024 79.4297 232.843 79.2891C232.667 79.1484 232.474 79.0459 232.263 78.9814C232.052 78.917 231.814 78.8848 231.551 78.8848H230.707V84H228.624V71.3965H232.772C233.364 71.3965 233.909 71.4668 234.407 71.6074C234.905 71.748 235.339 71.9619 235.708 72.249C236.077 72.5303 236.364 72.8848 236.569 73.3125C236.78 73.7344 236.886 74.2295 236.886 74.7979C236.886 75.2432 236.818 75.6533 236.684 76.0283C236.555 76.3975 236.367 76.7285 236.121 77.0215C235.881 77.3086 235.588 77.5547 235.242 77.7598C234.902 77.9648 234.519 78.123 234.091 78.2344V78.2695C234.319 78.3984 234.519 78.542 234.688 78.7002C234.858 78.8525 235.02 79.0107 235.172 79.1748C235.324 79.3389 235.474 79.5264 235.62 79.7373C235.772 79.9424 235.939 80.1826 236.121 80.458L238.362 84ZM230.707 73.0928V77.1885H232.447C232.77 77.1885 233.065 77.1387 233.335 77.0391C233.61 76.9395 233.848 76.7959 234.047 76.6084C234.246 76.4209 234.401 76.1924 234.513 75.9229C234.624 75.6533 234.68 75.3516 234.68 75.0176C234.68 74.4141 234.489 73.9424 234.108 73.6025C233.728 73.2627 233.18 73.0928 232.465 73.0928H230.707ZM246.914 84H239.839V71.3965H246.633V73.1719H241.931V76.7402H246.264V78.5068H241.931V82.2334H246.914V84ZM258.894 84H256.45L254.438 80.625C254.256 80.3145 254.077 80.0508 253.901 79.834C253.731 79.6113 253.556 79.4297 253.374 79.2891C253.198 79.1484 253.005 79.0459 252.794 78.9814C252.583 78.917 252.346 78.8848 252.082 78.8848H251.238V84H249.155V71.3965H253.304C253.896 71.3965 254.44 71.4668 254.938 71.6074C255.437 71.748 255.87 71.9619 256.239 72.249C256.608 72.5303 256.896 72.8848 257.101 73.3125C257.312 73.7344 257.417 74.2295 257.417 74.7979C257.417 75.2432 257.35 75.6533 257.215 76.0283C257.086 76.3975 256.898 76.7285 256.652 77.0215C256.412 77.3086 256.119 77.5547 255.773 77.7598C255.434 77.9648 255.05 78.123 254.622 78.2344V78.2695C254.851 78.3984 255.05 78.542 255.22 78.7002C255.39 78.8525 255.551 79.0107 255.703 79.1748C255.855 79.3389 256.005 79.5264 256.151 79.7373C256.304 79.9424 256.471 80.1826 256.652 80.458L258.894 84ZM251.238 73.0928V77.1885H252.979C253.301 77.1885 253.597 77.1387 253.866 77.0391C254.142 76.9395 254.379 76.7959 254.578 76.6084C254.777 76.4209 254.933 76.1924 255.044 75.9229C255.155 75.6533 255.211 75.3516 255.211 75.0176C255.211 74.4141 255.021 73.9424 254.64 73.6025C254.259 73.2627 253.711 73.0928 252.996 73.0928H251.238Z" fill="#C5AB64"/>
</svg>
